<svg width="196" height="30" viewBox="0 0 196 30" fill="none" xmlns="http://www.w3.org/2000/svg">
<path d="M9.552 29.38C7.77867 29.38 6.22067 29.0507 4.878 28.392C3.56067 27.708 2.53467 26.758 1.8 25.542C1.09067 24.3007 0.736 22.844 0.736 21.172V9.088C0.736 7.39067 1.09067 5.934 1.8 4.718C2.53467 3.502 3.56067 2.56466 4.878 1.906C6.22067 1.222 7.77867 0.88 9.552 0.88C11.3507 0.88 12.896 1.222 14.188 1.906C15.5053 2.56466 16.5313 3.502 17.266 4.718C18.0007 5.934 18.368 7.39067 18.368 9.088H13.58C13.58 7.77067 13.2253 6.77 12.516 6.086C11.832 5.402 10.844 5.06 9.552 5.06C8.26 5.06 7.25933 5.402 6.55 6.086C5.84067 6.77 5.486 7.758 5.486 9.05V21.172C5.486 22.464 5.84067 23.4647 6.55 24.174C7.25933 24.8833 8.26 25.238 9.552 25.238C10.844 25.238 11.832 24.8833 12.516 24.174C13.2253 23.4647 13.58 22.464 13.58 21.172V18.36H8.868V14.256H18.368V21.172C18.368 22.844 18.0007 24.3007 17.266 25.542C16.5313 26.758 15.5053 27.708 14.188 28.392C12.896 29.0507 11.3507 29.38 9.552 29.38ZM26.6372 29.38C24.4838 29.38 22.7865 28.81 21.5452 27.67C20.3038 26.53 19.6832 24.9973 19.6832 23.072C19.6832 21.02 20.3672 19.4367 21.7352 18.322C23.1032 17.2073 25.0412 16.65 27.5492 16.65H32.7552V14.864C32.7552 13.8507 32.4258 13.0653 31.7672 12.508C31.1085 11.9253 30.2092 11.634 29.0692 11.634C28.0305 11.634 27.1692 11.862 26.4852 12.318C25.8012 12.774 25.3958 13.3947 25.2692 14.18H20.6332C20.8612 12.204 21.7478 10.6333 23.2932 9.468C24.8385 8.30267 26.8145 7.72 29.2212 7.72C31.7798 7.72 33.7938 8.366 35.2632 9.658C36.7578 10.9247 37.5052 12.6473 37.5052 14.826V29H32.9072V25.352H32.1472L32.9072 24.326C32.9072 25.8713 32.3372 27.1 31.1972 28.012C30.0572 28.924 28.5372 29.38 26.6372 29.38ZM28.1952 25.808C29.5378 25.808 30.6272 25.466 31.4632 24.782C32.3245 24.098 32.7552 23.2113 32.7552 22.122V19.576H27.6252C26.6625 19.576 25.8898 19.8547 25.3072 20.412C24.7245 20.9693 24.4332 21.704 24.4332 22.616C24.4332 23.604 24.7625 24.3893 25.4212 24.972C26.1052 25.5293 27.0298 25.808 28.1952 25.808ZM50.2963 29.38C48.5736 29.38 47.2056 28.8987 46.1923 27.936C45.179 26.948 44.6723 25.6053 44.6723 23.908L45.7363 25.01H44.6723V29H40.0363V1.26H44.7863V7.112L44.6343 12.09H45.7363L44.6723 13.192C44.6723 11.4947 45.179 10.1647 46.1923 9.202C47.2056 8.214 48.5736 7.72 50.2963 7.72C52.399 7.72 54.0836 8.442 55.3503 9.886C56.617 11.33 57.2503 13.2807 57.2503 15.738V21.4C57.2503 23.832 56.617 25.77 55.3503 27.214C54.0836 28.658 52.399 29.38 50.2963 29.38ZM48.6243 25.276C49.8403 25.276 50.7903 24.9213 51.4743 24.212C52.1583 23.5027 52.5003 22.4893 52.5003 21.172V15.928C52.5003 14.6107 52.1583 13.5973 51.4743 12.888C50.7903 12.1787 49.8403 11.824 48.6243 11.824C47.4336 11.824 46.4963 12.1913 45.8123 12.926C45.1283 13.6353 44.7863 14.636 44.7863 15.928V21.172C44.7863 22.464 45.1283 23.4773 45.8123 24.212C46.4963 24.9213 47.4336 25.276 48.6243 25.276ZM60.5795 29V1.26H65.3295V24.592H77.1095V29H60.5795ZM87.6206 29.38C84.9606 29.38 82.8706 28.6453 81.3506 27.176C79.8306 25.6813 79.0706 23.6547 79.0706 21.096V8.1H83.8206V21.058C83.8206 22.4007 84.15 23.4393 84.8086 24.174C85.4673 24.8833 86.4046 25.238 87.6206 25.238C88.8113 25.238 89.736 24.8833 90.3946 24.174C91.0786 23.4393 91.4206 22.4007 91.4206 21.058V8.1H96.1706V21.096C96.1706 23.6547 95.398 25.6813 93.8526 27.176C92.3073 28.6453 90.23 29.38 87.6206 29.38ZM98.7018 29V8.1H103.338V12.09H104.63L103.338 13.192C103.338 11.4693 103.832 10.1267 104.82 9.164C105.833 8.20133 107.214 7.72 108.962 7.72C111.014 7.72 112.648 8.404 113.864 9.772C115.105 11.14 115.726 12.9767 115.726 15.282V29H110.976V15.776C110.976 14.5093 110.646 13.534 109.988 12.85C109.329 12.166 108.404 11.824 107.214 11.824C106.048 11.824 105.124 12.1787 104.44 12.888C103.781 13.5973 103.452 14.6107 103.452 15.928V29H98.7018ZM124.413 29.38C122.26 29.38 120.562 28.81 119.321 27.67C118.08 26.53 117.459 24.9973 117.459 23.072C117.459 21.02 118.143 19.4367 119.511 18.322C120.879 17.2073 122.817 16.65 125.325 16.65H130.531V14.864C130.531 13.8507 130.202 13.0653 129.543 12.508C128.884 11.9253 127.985 11.634 126.845 11.634C125.806 11.634 124.945 11.862 124.261 12.318C123.577 12.774 123.172 13.3947 123.045 14.18H118.409C118.637 12.204 119.524 10.6333 121.069 9.468C122.614 8.30267 124.59 7.72 126.997 7.72C129.556 7.72 131.57 8.366 133.039 9.658C134.534 10.9247 135.281 12.6473 135.281 14.826V29H130.683V25.352H129.923L130.683 24.326C130.683 25.8713 130.113 27.1 128.973 28.012C127.833 28.924 126.313 29.38 124.413 29.38ZM125.971 25.808C127.314 25.808 128.403 25.466 129.239 24.782C130.1 24.098 130.531 23.2113 130.531 22.122V19.576H125.401C124.438 19.576 123.666 19.8547 123.083 20.412C122.5 20.9693 122.209 21.704 122.209 22.616C122.209 23.604 122.538 24.3893 123.197 24.972C123.881 25.5293 124.806 25.808 125.971 25.808ZM137.736 29V1.26H145.982C147.857 1.26 149.478 1.61467 150.846 2.324C152.239 3.03333 153.316 4.034 154.076 5.326C154.836 6.618 155.216 8.15067 155.216 9.924V20.298C155.216 22.046 154.836 23.5787 154.076 24.896C153.316 26.188 152.239 27.2013 150.846 27.936C149.478 28.6453 147.857 29 145.982 29H137.736ZM142.486 24.63H145.982C147.35 24.63 148.439 24.25 149.25 23.49C150.061 22.7047 150.466 21.6407 150.466 20.298V9.924C150.466 8.60667 150.061 7.568 149.25 6.808C148.439 6.02267 147.35 5.63 145.982 5.63H142.486V24.63ZM165.879 29.38C164.106 29.38 162.561 29.038 161.243 28.354C159.926 27.67 158.9 26.72 158.165 25.504C157.456 24.2627 157.101 22.8187 157.101 21.172V15.928C157.101 14.2813 157.456 12.85 158.165 11.634C158.9 10.3927 159.926 9.43 161.243 8.746C162.561 8.062 164.106 7.72 165.879 7.72C167.627 7.72 169.147 8.062 170.439 8.746C171.757 9.43 172.77 10.3927 173.479 11.634C174.214 12.85 174.581 14.2813 174.581 15.928V19.69H161.699V21.172C161.699 22.6413 162.054 23.756 162.763 24.516C163.473 25.2507 164.524 25.618 165.917 25.618C166.981 25.618 167.843 25.4407 168.501 25.086C169.16 24.706 169.578 24.1613 169.755 23.452H174.429C174.075 25.2507 173.112 26.6947 171.541 27.784C169.996 28.848 168.109 29.38 165.879 29.38ZM169.983 17.03V15.89C169.983 14.446 169.641 13.344 168.957 12.584C168.273 11.7987 167.247 11.406 165.879 11.406C164.511 11.406 163.473 11.7987 162.763 12.584C162.054 13.3693 161.699 14.484 161.699 15.928V16.726L170.325 16.65L169.983 17.03ZM182.356 29L175.478 8.1H180.342L184.332 20.792C184.56 21.552 184.776 22.3373 184.978 23.148C185.206 23.9587 185.371 24.6047 185.472 25.086C185.599 24.6047 185.764 23.9587 185.966 23.148C186.169 22.3373 186.372 21.5647 186.574 20.83L190.488 8.1H195.314L188.474 29H182.356Z" fill="white"/>
</svg>
