<svg width="208" height="37" viewBox="0 0 656 97" fill="none" xmlns="http://www.w3.org/2000/svg">
<path d="M29.912 96.28C23.9387 96.28 18.6907 95.1707 14.168 92.952C9.73067 90.648 6.27467 87.448 3.8 83.352C1.41067 79.1707 0.216001 74.264 0.216001 68.632V27.928C0.216001 22.2107 1.41067 17.304 3.8 13.208C6.27467 9.11199 9.73067 5.95466 14.168 3.73599C18.6907 1.432 23.9387 0.279999 29.912 0.279999C35.9707 0.279999 41.176 1.432 45.528 3.73599C49.9653 5.95466 53.4213 9.11199 55.896 13.208C58.3707 17.304 59.608 22.2107 59.608 27.928H43.48C43.48 23.4907 42.2853 20.12 39.896 17.816C37.592 15.512 34.264 14.36 29.912 14.36C25.56 14.36 22.1893 15.512 19.8 17.816C17.4107 20.12 16.216 23.448 16.216 27.8V68.632C16.216 72.984 17.4107 76.3547 19.8 78.744C22.1893 81.1333 25.56 82.328 29.912 82.328C34.264 82.328 37.592 81.1333 39.896 78.744C42.2853 76.3547 43.48 72.984 43.48 68.632V59.16H27.608V45.336H59.608V68.632C59.608 74.264 58.3707 79.1707 55.896 83.352C53.4213 87.448 49.9653 90.648 45.528 92.952C41.176 95.1707 35.9707 96.28 29.912 96.28ZM87.462 96.28C80.2087 96.28 74.4913 94.36 70.31 90.52C66.1287 86.68 64.038 81.5173 64.038 75.032C64.038 68.12 66.342 62.7867 70.95 59.032C75.558 55.2773 82.086 53.4 90.534 53.4H108.07V47.384C108.07 43.9707 106.961 41.3253 104.742 39.448C102.523 37.4853 99.494 36.504 95.654 36.504C92.1553 36.504 89.254 37.272 86.95 38.808C84.646 40.344 83.2807 42.4347 82.854 45.08H67.238C68.006 38.424 70.9927 33.1333 76.198 29.208C81.4033 25.2827 88.0593 23.32 96.166 23.32C104.785 23.32 111.569 25.496 116.518 29.848C121.553 34.1147 124.07 39.9173 124.07 47.256V95H108.582V82.712H106.022L108.582 79.256C108.582 84.4613 106.662 88.6 102.822 91.672C98.982 94.744 93.862 96.28 87.462 96.28ZM92.71 84.248C97.2327 84.248 100.902 83.096 103.718 80.792C106.619 78.488 108.07 75.5013 108.07 71.832V63.256H90.79C87.5473 63.256 84.9447 64.1947 82.982 66.072C81.0193 67.9493 80.038 70.424 80.038 73.496C80.038 76.824 81.1473 79.4693 83.366 81.432C85.67 83.3093 88.7847 84.248 92.71 84.248ZM167.156 96.28C161.353 96.28 156.745 94.6587 153.332 91.416C149.919 88.088 148.212 83.5653 148.212 77.848L151.796 81.56H148.212V95H132.596V1.56H148.596V21.272L148.084 38.04H151.796L148.212 41.752C148.212 36.0347 149.919 31.5547 153.332 28.312C156.745 24.984 161.353 23.32 167.156 23.32C174.239 23.32 179.913 25.752 184.18 30.616C188.447 35.48 190.58 42.0507 190.58 50.328V69.4C190.58 77.592 188.447 84.12 184.18 88.984C179.913 93.848 174.239 96.28 167.156 96.28ZM161.524 82.456C165.62 82.456 168.82 81.2613 171.124 78.872C173.428 76.4827 174.58 73.0693 174.58 68.632V50.968C174.58 46.5307 173.428 43.1173 171.124 40.728C168.82 38.3387 165.62 37.144 161.524 37.144C157.513 37.144 154.356 38.3813 152.052 40.856C149.748 43.2453 148.596 46.616 148.596 50.968V68.632C148.596 72.984 149.748 76.3973 152.052 78.872C154.356 81.2613 157.513 82.456 161.524 82.456ZM201.794 95V1.56H217.794V80.152H257.474V95H201.794ZM292.88 96.28C283.92 96.28 276.88 93.8053 271.76 88.856C266.64 83.8213 264.08 76.9947 264.08 68.376V24.6H280.08V68.248C280.08 72.7707 281.189 76.2693 283.408 78.744C285.627 81.1333 288.784 82.328 292.88 82.328C296.891 82.328 300.005 81.1333 302.224 78.744C304.528 76.2693 305.68 72.7707 305.68 68.248V24.6H321.68V68.376C321.68 76.9947 319.077 83.8213 313.872 88.856C308.667 93.8053 301.669 96.28 292.88 96.28ZM330.206 95V24.6H345.822V38.04H350.174L345.822 41.752C345.822 35.9493 347.486 31.4267 350.814 28.184C354.227 24.9413 358.878 23.32 364.766 23.32C371.678 23.32 377.182 25.624 381.278 30.232C385.459 34.84 387.55 41.0267 387.55 48.792V95H371.55V50.456C371.55 46.1893 370.441 42.904 368.222 40.6C366.003 38.296 362.889 37.144 358.878 37.144C354.953 37.144 351.838 38.3387 349.534 40.728C347.315 43.1173 346.206 46.5307 346.206 50.968V95H330.206ZM416.812 96.28C409.559 96.28 403.841 94.36 399.66 90.52C395.479 86.68 393.388 81.5173 393.388 75.032C393.388 68.12 395.692 62.7867 400.3 59.032C404.908 55.2773 411.436 53.4 419.884 53.4H437.42V47.384C437.42 43.9707 436.311 41.3253 434.092 39.448C431.873 37.4853 428.844 36.504 425.004 36.504C421.505 36.504 418.604 37.272 416.3 38.808C413.996 40.344 412.631 42.4347 412.204 45.08H396.588C397.356 38.424 400.343 33.1333 405.548 29.208C410.753 25.2827 417.409 23.32 425.516 23.32C434.135 23.32 440.919 25.496 445.868 29.848C450.903 34.1147 453.42 39.9173 453.42 47.256V95H437.932V82.712H435.372L437.932 79.256C437.932 84.4613 436.012 88.6 432.172 91.672C428.332 94.744 423.212 96.28 416.812 96.28ZM422.06 84.248C426.583 84.248 430.252 83.096 433.068 80.792C435.969 78.488 437.42 75.5013 437.42 71.832V63.256H420.14C416.897 63.256 414.295 64.1947 412.332 66.072C410.369 67.9493 409.388 70.424 409.388 73.496C409.388 76.824 410.497 79.4693 412.716 81.432C415.02 83.3093 418.135 84.248 422.06 84.248ZM461.69 95V1.56H489.466C495.781 1.56 501.242 2.75466 505.85 5.144C510.543 7.53333 514.17 10.904 516.73 15.256C519.29 19.608 520.57 24.7707 520.57 30.744V65.688C520.57 71.576 519.29 76.7387 516.73 81.176C514.17 85.528 510.543 88.9413 505.85 91.416C501.242 93.8053 495.781 95 489.466 95H461.69ZM477.69 80.28H489.466C494.074 80.28 497.743 79 500.474 76.44C503.205 73.7947 504.57 70.2107 504.57 65.688V30.744C504.57 26.3067 503.205 22.808 500.474 20.248C497.743 17.6027 494.074 16.28 489.466 16.28H477.69V80.28ZM556.488 96.28C550.515 96.28 545.309 95.128 540.872 92.824C536.435 90.52 532.979 87.32 530.504 83.224C528.115 79.0427 526.92 74.1787 526.92 68.632V50.968C526.92 45.4213 528.115 40.6 530.504 36.504C532.979 32.3227 536.435 29.08 540.872 26.776C545.309 24.472 550.515 23.32 556.488 23.32C562.376 23.32 567.496 24.472 571.848 26.776C576.285 29.08 579.699 32.3227 582.088 36.504C584.563 40.6 585.8 45.4213 585.8 50.968V63.64H542.408V68.632C542.408 73.5813 543.603 77.336 545.992 79.896C548.381 82.3707 551.923 83.608 556.616 83.608C560.2 83.608 563.101 83.0107 565.32 81.816C567.539 80.536 568.947 78.7013 569.544 76.312H585.288C584.093 82.3707 580.851 87.2347 575.56 90.904C570.355 94.488 563.997 96.28 556.488 96.28ZM570.312 54.68V50.84C570.312 45.976 569.16 42.264 566.856 39.704C564.552 37.0587 561.096 35.736 556.488 35.736C551.88 35.736 548.381 37.0587 545.992 39.704C543.603 42.3493 542.408 46.104 542.408 50.968V53.656L571.464 53.4L570.312 54.68ZM611.99 95L588.822 24.6H605.206L618.646 67.352C619.414 69.912 620.139 72.5573 620.822 75.288C621.59 78.0187 622.145 80.1947 622.486 81.816C622.913 80.1947 623.467 78.0187 624.15 75.288C624.833 72.5573 625.515 69.9547 626.198 67.48L639.382 24.6H655.638L632.598 95H611.99Z" fill="black"/>
</svg>
