<svg width="63" height="86" viewBox="0 0 63 86" fill="none" xmlns="http://www.w3.org/2000/svg">
<path d="M30.84 47.1H49.284V58.12C49.284 63.3222 47.9014 67.2778 45.2012 70.0598L45.2012 70.0597L45.1959 70.0653C42.5833 72.8412 38.8475 74.26 33.912 74.26C28.9795 74.26 25.151 72.8424 22.3641 70.057C19.6658 67.2752 18.284 63.3204 18.284 58.12V28.032C18.284 22.8306 19.6661 18.9227 22.359 16.2282C25.1452 13.5254 28.9754 12.148 33.912 12.148C38.8475 12.148 42.5833 13.5668 45.1959 16.3427L45.2011 16.3482L45.2065 16.3536C47.9011 19.0481 49.284 22.9569 49.284 28.16V28.66H49.784H61.304H61.804V28.16C61.804 22.5464 60.681 17.6808 58.4136 13.582C56.1476 9.48582 52.9193 6.3447 48.7386 4.16642C44.5564 1.90198 39.6083 0.780029 33.912 0.780029C28.1979 0.780029 23.7343 1.98015 18.9943 4.02078C14.2628 6.05774 8.68587 9.59667 5.6173 13.2463C2.53587 16.9111 0.5 22.4194 0.5 28.16V28.1932V28.2266V28.2604V28.2944V28.3288V28.3634V28.3983V28.4336V28.4691V28.5049V28.541V28.5774V28.614V28.651V28.6882V28.7257V28.7635V28.8016V28.84V28.8786V28.9176V28.9568V28.9962V29.036V29.076V29.1163V29.1569V29.1977V29.2388V29.2802V29.3218V29.3637V29.4058V29.4483V29.4909V29.5339V29.5771V29.6205V29.6642V29.7082V29.7524V29.7969V29.8416V29.8866V29.9318V29.9773V30.023V30.069V30.1152V30.1617V30.2084V30.2553V30.3025V30.3499V30.3975V30.4454V30.4935V30.5419V30.5905V30.6393V30.6884V30.7376V30.7871V30.8369V30.8868V30.937V30.9874V31.038V31.0889V31.14V31.1912V31.2428V31.2945V31.3464V31.3986V31.4509V31.5035V31.5563V31.6093V31.6625V31.7159V31.7695V31.8233V31.8773V31.9315V31.986V32.0406V32.0954V32.1504V32.2056V32.261V32.3166V32.3724V32.4284V32.4846V32.541V32.5975V32.6542V32.7112V32.7683V32.8256V32.883V32.9407V32.9985V33.0565V33.1147V33.1731V33.2316V33.2903V33.3492V33.4083V33.4675V33.5269V33.5865V33.6462V33.7061V33.7661V33.8264V33.8867V33.9473V34.008V34.0688V34.1299V34.191V34.2524V34.3139V34.3755V34.4373V34.4992V34.5613V34.6235V34.6859V34.7484V34.8111V34.8739V34.9369V35V35.0632V35.1266V35.1901V35.2537V35.3175V35.3814V35.4454V35.5096V35.5739V35.6384V35.7029V35.7676V35.8324V35.8974V35.9624V36.0276V36.0929V36.1583V36.2239V36.2895V36.3553V36.4212V36.4872V36.5533V36.6195V36.6859V36.7523V36.8189V36.8855V36.9523V37.0191V37.0861V37.1532V37.2203V37.2876V37.355V37.4225V37.49V37.5577V37.6254V37.6933V37.7612V37.8292V37.8973V37.9655V38.0338V38.1022V38.1706V38.2392V38.3078V38.3765V38.4453V38.5141V38.583V38.6521V38.7211V38.7903V38.8595V38.9288V38.9982V39.0676V39.1371V39.2067V39.2763V39.346V39.4158V39.4856V39.5555V39.6255V39.6954V39.7655V39.8356V39.9058V39.976V40.0463V40.1166V40.187V40.2574V40.3279V40.3984V40.469V40.5396V40.6102V40.6809V40.7516V40.8224V40.8932V40.9641V41.0349V41.1058V41.1768V41.2478V41.3188V41.3898V41.4609V41.532V41.6031V41.6743V41.7454V41.8166V41.8878V41.9591V42.0303V42.1016V42.1729V42.2442V42.3155V42.3868V42.4582V42.5295V42.6009V42.6723V42.7437V42.815V42.8864V42.9578V43.0292V43.1006V43.172V43.2434V43.3148V43.3862V43.4576V43.529V43.6003V43.6717V43.7431V43.8144V43.8858V43.9571V44.0284V44.0997V44.171V44.2422V44.3135V44.3847V44.4559V44.5271V44.5982V44.6693V44.7405V44.8115V44.8826V44.9536V45.0246V45.0955V45.1665V45.2374V45.3082V45.379V45.4498V45.5206V45.5913V45.6619V45.7326V45.8031V45.8737V45.9441V46.0146V46.085V46.1553V46.2256V46.2959V46.366V46.4362V46.5063V46.5763V46.6462V46.7161V46.786V46.8558V46.9255V46.9952V47.0647V47.1343V47.2037V47.2731V47.3424V47.4117V47.4809V47.55V47.619V47.688V47.7569V47.8257V47.8944V47.963V48.0316V48.1001V48.1685V48.2368V48.305V48.3732V48.4412V48.5092V48.5771V48.6448V48.7125V48.7801V48.8476V48.915V48.9823V49.0495V49.1166V49.1836V49.2505V49.3173V49.384V49.4506V49.5171V49.5835V49.6497V49.7159V49.7819V49.8478V49.9137V49.9794V50.0449V50.1104V50.1757V50.241V50.3061V50.371V50.4359V50.5006V50.5652V50.6297V50.6941V50.7583V50.8224V50.8863V50.9502V51.0139V51.0774V51.1408V51.2041V51.2672V51.3302V51.3931V51.4558V51.5184V51.5808V51.6431V51.7052V51.7672V51.8291V51.8908V51.9523V52.0137V52.0749V52.136V52.1969V52.2576V52.3182V52.3787V52.439V52.4991V52.559V52.6188V52.6784V52.7379V52.7972V52.8563V52.9152V52.974V53.0326V53.091V53.1493V53.2073V53.2652V53.323V53.3805V53.4378V53.495V53.552V53.6088V53.6654V53.7218V53.7781V53.8341V53.89V53.9457V54.0011V54.0564V54.1115V54.1664V54.2211V54.2756V54.3299V54.3839V54.4378V54.4915V54.545V54.5983V54.6513V54.7042V54.7568V54.8093V54.8615V54.9135V54.9653V55.0169V55.0682V55.1194V55.1703V55.221V55.2715V55.3217V55.3718V55.4216V55.4712V55.5205V55.5696V55.6185V55.6672V55.7157V55.7639V55.8118V55.8596V55.9071V55.9543V56.0013V56.0481V56.0946V56.1409V56.187V56.2328V56.2783V56.3237V56.3687V56.4135V56.4581V56.5024V56.5465V56.5903V56.6338V56.6771V56.7201V56.7629V56.8054V56.8476V56.8896V56.9314V56.9728V57.014V57.0549V57.0956V57.136V57.1761V57.2159V57.2555V57.2948V57.3338V57.3725V57.411V57.4492V57.4871V57.5247V57.562V57.5991V57.6359V57.6723V57.7085V57.7444V57.7801V57.8154V57.8504V57.8852V57.9196V57.9537V57.9876V58.0211V58.0544V58.0874V58.12C0.5 63.811 3.06164 68.964 5.58445 72.7341C6.88274 74.6742 9.06308 76.6571 11.4882 78.3467C13.9178 80.0396 16.6329 81.4658 19.0325 82.2739C19.3376 82.3766 19.6419 82.4797 19.9458 82.5826C24.2974 84.0569 28.5573 85.5 33.912 85.5C39.607 85.5 44.5537 84.4212 48.735 82.2435L48.735 82.2435L48.7422 82.2396C52.9207 79.9763 56.1479 76.7937 58.4136 72.6981L58.4157 72.6942C60.6803 68.5133 61.804 63.6501 61.804 58.12V36.104V35.604H61.304H30.84H30.34V36.104V46.6V47.1H30.84Z" fill="#00FF75" stroke="#DADADA"/>
<path d="M33.912 85C28.28 85 23.3734 83.9333 19.192 81.8C15.096 79.6667 11.896 76.5947 9.59204 72.584C7.37337 68.488 6.26404 63.6667 6.26404 58.12V28.16C6.26404 22.528 7.37337 17.7067 9.59204 13.696C11.896 9.68536 15.096 6.61336 19.192 4.48003C23.3734 2.34669 28.28 1.28003 33.912 1.28003C39.544 1.28003 44.408 2.38936 48.504 4.60802C52.6 6.74136 55.7574 9.81336 57.976 13.824C60.1947 17.8347 61.304 22.6134 61.304 28.16H49.784C49.784 22.8694 48.376 18.816 45.56 16C42.8294 13.0987 38.9467 11.648 33.912 11.648C28.8774 11.648 24.9094 13.056 22.008 15.872C19.192 18.688 17.784 22.7414 17.784 28.032V58.12C17.784 63.4107 19.192 67.5067 22.008 70.408C24.9094 73.3093 28.8774 74.76 33.912 74.76C38.9467 74.76 42.8294 73.3093 45.56 70.408C48.376 67.5067 49.784 63.4107 49.784 58.12V46.6H30.84V36.104H61.304V58.12C61.304 63.5813 60.1947 68.36 57.976 72.456C55.7574 76.4667 52.6 79.5813 48.504 81.8C44.408 83.9333 39.544 85 33.912 85Z" fill="white"/>
</svg>
